<?xml version="1.0" encoding="utf-8"?>
<!-- Generator: Adobe Illustrator 27.0.0, SVG Export Plug-In . SVG Version: 6.00 Build 0)  -->
<svg version="1.1" id="Ebene_1" xmlns="http://www.w3.org/2000/svg" xmlns:xlink="http://www.w3.org/1999/xlink" x="0px" y="0px"
	 viewBox="0 0 425.2 504.6" style="enable-background:new 0 0 425.2 504.6;" xml:space="preserve">
<style type="text/css">
	.st0{fill:none;stroke:#FFFFFF;stroke-width:16.2939;stroke-miterlimit:10;}
	.st1{fill:#007440;}
	.st2{fill:#FFFFFF;}
	.st3{fill-rule:evenodd;clip-rule:evenodd;fill:#FFFFFF;}
	.st4{fill-rule:evenodd;clip-rule:evenodd;fill:#007440;}
</style>
<g>
	<path class="st0" d="M296.7,16.9c-25.2,25.7-67.9,41.5-118,41.5c-45.8,0-86.5-14.2-112.4-36.3c0,0-87.4,115.5-35.8,271.9
		s184,193.6,184,193.6c128.5-57,194.7-152.2,196.6-286.8c-61-24.6-84.1-69.5-68.3-134.5L296.7,16.9L296.7,16.9z"/>
	<path class="st1" d="M296.7,16.9c-25.2,25.7-67.9,41.5-118,41.5c-45.8,0-86.5-14.2-112.4-36.3c0,0-87.4,115.5-35.8,271.9
		s184,193.6,184,193.6C343,430.7,409.2,335.5,411,200.9c-61-24.6-84.1-69.5-68.3-134.5L296.7,16.9L296.7,16.9z"/>
	<path class="st2" d="M331.2,69.6l-35.1-37.7C268,55.5,225.9,69,178.6,69c-42.8,0-82-11.8-109.9-31.5c-1.8,2.8-3.8,6.3-6.1,10.3
		c-7.1,12.8-16.1,31.4-23.6,54.9c-14.9,46.8-23.5,112.5,1.4,188.1c25,75.7,69.4,122.4,107.6,150.2c19.1,13.9,36.6,23.1,49.3,28.8
		c7.4,3.3,13.1,5.4,16.5,6.6c120.4-54.6,182.5-143.4,186.4-268.5C341.1,181.3,317.4,134.3,331.2,69.6z M312,97.7L44.7,244.3
		c-0.6-3.5-1.2-6.9-1.6-10.3L312.8,86.6C312.4,90.3,312.2,94.1,312,97.7z M339.7,182.9c2,2.3,4.1,4.6,6.3,6.9L81.8,345
		c-1.5-2.5-2.9-5.1-4.4-7.7L339.7,182.9z M53.8,107.3c6.3-19.7,13.7-35.9,20-47.7c29.2,16.2,66.1,24.8,104.8,24.8
		c44.1,0,84.9-11.1,115.6-31.9l18,19.4L41.5,221.2C37.2,176.7,44.2,137.8,53.8,107.3z M213.2,459.6c-2.7-1-5.9-2.4-9.5-4
		c-11.9-5.3-28.4-14-46.5-27.2c-22.1-16.1-46.6-39.1-67.7-71.1l266.5-158.5c8.3,6.8,17.8,13,28.3,18.5
		C377.9,328.9,321.6,408.6,213.2,459.6z"/>
	<polygon class="st2" points="73.3,133.1 83.9,181.3 93.8,175.9 89.1,154.9 105.5,146 103.8,138 87.4,147 84.9,135.6 102.3,126.1 
		100.5,118.1 73.3,133.1 	"/>
	<polygon class="st2" points="114.9,152.5 105.9,157.4 108.2,167.9 117.3,163 114.9,152.5 	"/>
	<polygon class="st2" points="121,106.9 110.5,112.7 132.4,154.7 145,147.8 145.6,93.5 135.4,99 136,138.7 135.8,138.8 121,106.9 	
		"/>
	<polygon class="st2" points="160.5,127.5 151.5,132.4 153.8,143 162.8,138 160.5,127.5 	"/>
	<path class="st2" d="M157.8,362.7l-6.9,3.9l0.3,1.4c0.7,3.2,2.1,5.2,4.2,5.9c2.1,0.7,5.1,0,9-2.2c3.7-2.1,6.5-4.6,8.2-7.5
		c1.7-2.9,2.2-6.2,1.4-9.8c-0.2-1.1-0.6-2-0.9-2.7c-0.4-0.8-0.9-1.4-1.6-1.8c-0.6-0.5-1.5-0.8-2.4-0.9c-1-0.2-2.2-0.2-3.6,0
		l-5.9,0.7c-1.6,0.2-2.7,0.1-3.3-0.3c-0.6-0.5-1-1.3-1.3-2.3c-0.1-0.5-0.2-1-0.2-1.6c0-0.6,0.1-1.1,0.3-1.6c0.2-0.6,0.6-1.1,1-1.6
		c0.5-0.5,1.1-1,1.8-1.4c1.3-0.8,2.4-0.9,3.2-0.3c0.8,0.5,1.3,1.6,1.7,3.3l6.6-3.8l-0.2-1c-0.4-1.6-1-2.9-1.8-3.7
		c-0.8-0.9-1.7-1.5-2.9-1.6c-1.1-0.2-2.4-0.2-3.7,0.3c-1.4,0.4-2.8,1-4.3,1.9c-3.3,1.9-5.7,4.2-7.2,7c-1.5,2.8-1.9,5.8-1.1,9.3
		c0.3,1.4,0.8,2.6,1.4,3.5c0.6,0.9,1.4,1.5,2.3,1.9c1,0.4,2.1,0.5,3.3,0.5c1.3,0,2.7-0.2,4.4-0.6c1.2-0.3,2.3-0.4,3.1-0.5
		c0.9-0.1,1.6-0.1,2.2,0.1c0.6,0.2,1,0.5,1.4,1c0.3,0.4,0.6,1,0.8,1.8c0.3,1.5,0.1,2.8-0.6,4c-0.7,1.2-1.5,2-2.6,2.6
		c-0.9,0.5-1.7,0.8-2.3,0.9c-0.6,0.1-1.2,0-1.6-0.3c-0.5-0.3-0.8-0.7-1.1-1.2c-0.3-0.6-0.5-1.3-0.7-2.1L157.8,362.7L157.8,362.7z"/>
	<polygon class="st2" points="191.1,316.8 171.9,327.7 179.8,362.3 199.5,351.1 198.2,345.4 185.4,352.7 183.3,343.4 194.8,336.8 
		193.5,331.1 182,337.7 180.2,329.5 192.4,322.5 191.1,316.8 	"/>
	<path class="st2" d="M212.6,317.8l6.9-3.9c-0.3-1.3-0.7-2.5-1.2-3.9c-0.5-1.4-1.2-2.5-2.2-3.3c-1-0.9-2.3-1.3-3.9-1.3
		c-1.6,0-3.6,0.7-6.1,2.1c-2.6,1.5-4.6,3.1-5.9,4.9c-1.3,1.7-2.2,3.7-2.7,5.7c-0.4,2-0.5,4.2-0.3,6.6c0.3,2.3,0.7,4.8,1.3,7.4
		c0.6,2.6,1.3,5,2,7.1c0.8,2,1.7,3.6,2.9,4.8c1.2,1.1,2.7,1.6,4.4,1.6c1.7,0,3.9-0.8,6.5-2.3c2.3-1.3,4-2.7,5.3-4.2
		c1.3-1.5,2.2-3.1,2.6-4.8c0.5-1.7,0.7-3.5,0.6-5.3c-0.1-1.8-0.4-3.7-0.8-5.6l-6.9,3.9c0.4,1.9,0.7,3.5,0.7,4.7
		c0,1.3-0.1,2.3-0.3,3.2c-0.2,0.8-0.6,1.5-1.1,2.1c-0.5,0.5-1,0.9-1.6,1.2c-0.7,0.4-1.4,0.6-2.1,0.7c-0.6,0-1.2-0.3-1.8-1
		c-0.6-0.7-1.1-1.8-1.7-3.3c-0.5-1.5-1.1-3.6-1.7-6.2c-0.6-2.5-1-4.6-1.2-6.3c-0.3-1.8-0.3-3.3-0.3-4.5c0.1-1.2,0.3-2.3,0.8-3
		c0.5-0.8,1.1-1.5,2-2c1.6-0.9,2.8-0.9,3.6-0.1C211.3,313.6,212,315.2,212.6,317.8L212.6,317.8z"/>
	<polygon class="st2" points="221.3,299.6 229.2,334.2 236.1,330.2 232.6,314.9 240.7,310.3 244.2,325.6 251.1,321.7 243.2,287.1 
		236.3,291 239.3,304.3 231.2,308.9 228.2,295.6 221.3,299.6 	"/>
	<polygon class="st2" points="268.3,272.8 246.4,285.3 247.7,291 255.2,286.7 261.8,315.6 268.7,311.6 262.2,282.8 269.6,278.5 
		268.3,272.8 	"/>
	<polygon class="st2" points="290.7,260 271.6,270.9 279.4,305.5 299.1,294.3 297.8,288.6 285,295.9 282.9,286.6 294.5,280 
		293.2,274.3 281.6,280.8 279.8,272.7 292,265.7 290.7,260 	"/>
	<polygon class="st2" points="295,257.5 302.9,292.1 309.3,288.5 303,260.9 303.1,260.8 315.5,285 320.8,281.9 320.7,250.8 
		320.8,250.8 327,278.4 333.4,274.8 325.5,240.2 315.3,246 315.9,273.2 315.8,273.3 305.3,251.7 295,257.5 	"/>
	<path class="st2" d="M187.6,423.9l6.3-3.7l-7.1-37.1l-4.6,2.7c0.1,2.3-0.4,4.3-1.4,5.9c-1,1.6-2.6,3.1-4.7,4.3l-0.6,0.3l0.9,4.9
		l6.2-3.6L187.6,423.9L187.6,423.9z"/>
	<path class="st3" d="M202.9,387.3c-0.2-1-0.4-2-0.5-2.9c-0.1-1-0.1-1.8,0-2.6c0.1-0.8,0.3-1.5,0.7-2.1c0.4-0.7,1-1.2,1.7-1.7
		c0.7-0.4,1.3-0.6,1.9-0.4c0.5,0.1,1,0.4,1.3,0.9c0.4,0.5,0.7,1.1,1,2c0.3,0.9,0.5,1.8,0.7,2.9c0.5,2.5,0.6,4.5,0.2,5.9
		c-0.3,1.4-1.1,2.5-2.4,3.2c-1.2,0.7-2.2,0.7-2.9-0.1C204,391.5,203.4,389.8,202.9,387.3L202.9,387.3z M206.5,403.2l-6,3.5
		c0.4,1.8,0.9,3.1,1.6,4.1c0.7,0.9,1.5,1.5,2.5,1.8c0.9,0.2,1.9,0.2,3-0.2c1.1-0.3,2.2-0.8,3.3-1.5c2.5-1.5,4.4-3.2,5.6-5.1
		c1.2-2,2-4.1,2.2-6.3c0.3-2.3,0.3-4.7-0.1-7.2c-0.3-2.6-0.7-5.2-1.3-7.8c-0.4-2.3-1-4.4-1.6-6.4c-0.6-2-1.4-3.6-2.4-4.7
		c-1-1.2-2.2-1.9-3.7-2.1c-1.5-0.2-3.3,0.3-5.4,1.5c-3.5,2-5.8,4.7-7,7.9c-1.1,3.2-1.3,6.9-0.5,11.2c0.3,1.7,0.7,3.2,1.3,4.4
		c0.6,1.2,1.2,2.2,2,2.9c0.8,0.7,1.7,1,2.8,1c1.1,0,2.3-0.4,3.7-1.2c1.4-0.8,2.5-1.8,3.4-2.9c0.9-1.2,1.5-2.4,1.8-3.6l0.1-0.1
		l0.3,1.8c0.3,1.4,0.5,2.6,0.6,3.9c0.1,1.2,0.1,2.3,0,3.3c-0.1,1-0.4,1.9-0.8,2.7c-0.4,0.7-1,1.4-1.9,1.9c-1,0.6-1.9,0.7-2.4,0.2
		C207.2,405.6,206.8,404.6,206.5,403.2L206.5,403.2z"/>
	<path class="st2" d="M241.8,392.2l-1.1-5.9l-11.7,6.8c0-0.8,0.2-1.8,0.5-3.1c0.3-1.3,0.9-2.7,1.6-4.3l2.8-5.9
		c0.7-1.5,1.3-2.8,1.7-4c0.4-1.3,0.8-2.5,1-3.7c0.2-1.2,0.3-2.3,0.3-3.4c0-1.2-0.2-2.3-0.4-3.5c-0.6-3.3-1.9-5.3-3.7-6.2
		c-1.8-0.9-4.3-0.4-7.5,1.5c-3.3,1.9-5.6,4.3-6.8,7.1c-1.2,2.8-1.5,5.9-0.8,9.3l0.3,1.4l6-3.5c-0.2-1-0.3-1.9-0.4-2.8
		c-0.1-0.9-0.1-1.8,0-2.6c0.1-0.8,0.4-1.5,0.7-2.2c0.4-0.7,1-1.2,1.8-1.7c2-1.2,3.3-0.3,3.9,2.8c0.2,0.9,0.3,1.8,0.3,2.6
		c0.1,0.8,0.1,1.5,0,2.3c-0.1,0.8-0.3,1.6-0.6,2.5c-0.3,0.9-0.7,1.9-1.3,3l-2,4.3c-0.9,1.9-1.7,3.8-2.3,5.5c-0.6,1.7-1.1,3.4-1.4,5
		c-0.3,1.6-0.5,3.2-0.5,4.8c0,1.6,0.2,3.2,0.5,4.8L241.8,392.2L241.8,392.2z"/>
	<path class="st2" d="M247.9,376.5l-6,3.5l0,0.2c0.7,3.6,2,5.9,3.8,7c1.9,1.1,4.3,0.8,7.3-1c2.2-1.3,3.8-2.6,5-4
		c1.2-1.4,2.1-2.9,2.6-4.5c0.5-1.5,0.8-3,0.8-4.5c0-1.5-0.1-2.9-0.3-4.1c-0.4-2.3-1.2-4-2.4-5.1c-1.1-1.1-2.7-1.2-4.8-0.5l0-0.1
		c1.4-1.3,2.4-2.8,2.9-4.7c0.6-1.9,0.6-4,0.2-6.3c-0.6-3.3-1.9-5.2-3.7-5.9c-1.8-0.6-4.2-0.1-7,1.5c-3,1.7-5,4-6.2,6.7
		c-1.2,2.7-1.4,5.9-0.7,9.6l5.8-3.4c-0.2-0.9-0.3-1.7-0.4-2.5c-0.1-0.8,0-1.5,0.1-2.2c0.1-0.7,0.4-1.3,0.7-1.8
		c0.4-0.6,0.9-1.1,1.6-1.4c1-0.6,1.8-0.7,2.5-0.2c0.6,0.4,1.1,1.6,1.5,3.3c0.1,0.8,0.2,1.5,0.2,2.3c0,0.8-0.1,1.5-0.3,2.2
		c-0.2,0.7-0.4,1.3-0.8,2c-0.4,0.6-0.9,1.1-1.6,1.4l-2.1,1.2l0.9,4.9l2.1-1.2c0.9-0.5,1.6-0.7,2.2-0.7c0.6,0,1.1,0.3,1.5,0.7
		c0.4,0.4,0.7,1,1,1.7c0.3,0.7,0.5,1.4,0.6,2.3c0.2,0.8,0.3,1.6,0.3,2.4c0.1,0.8,0,1.5-0.1,2.2c-0.1,0.7-0.4,1.3-0.8,1.9
		c-0.4,0.6-0.9,1.1-1.7,1.5c-1.4,0.8-2.4,0.8-3.1-0.1C248.9,380.2,248.4,378.6,247.9,376.5L247.9,376.5z"/>
	<polygon class="st2" points="287.4,323.8 270,334 277.1,371.4 295,361 293.8,354.8 282.2,361.6 280.3,351.5 290.8,345.4 
		289.6,339.2 279.1,345.3 277.5,336.5 288.6,330 287.4,323.8 	"/>
	<polygon class="st2" points="302.7,347.3 297,350.7 298.5,358.9 304.3,355.5 302.7,347.3 	"/>
	<polygon class="st2" points="306.6,312.5 299.8,316.5 314.1,349.8 322.2,345 322.2,303.4 315.7,307.2 316.4,337.6 316.3,337.7 
		306.6,312.5 	"/>
	<polygon class="st2" points="332.3,330 326.5,333.4 328.1,341.6 333.8,338.2 332.3,330 	"/>
	<path class="st1" d="M118.4,242.3l14.9-8.5c-1.5-7.5-4.2-12.1-8-13.7c-3.8-1.7-9.1-0.6-16.1,3.4c-6.7,3.8-11.4,8.6-13.9,14.2
		c-2.6,5.6-3.1,12-1.7,19.1c0.8,4.1,2.1,7.1,3.8,9c1.8,1.8,3.7,3,5.8,3.6c2.2,0.5,4.5,0.6,6.8,0.4c2.4-0.3,4.5-0.4,6.6-0.5
		c2.1-0.2,3.8,0.1,5.3,0.8c1.5,0.6,2.5,2,3,4.3c0.4,1.9,0.2,3.8-0.4,5.6c-0.6,1.8-1.7,3.2-3.4,4.1c-1.5,0.9-2.9,1-4.1,0.4
		c-1.2-0.7-2.1-2.5-2.7-5.6l-0.3-1.7L98.6,286l0.5,2.5c0.7,3.7,1.8,6.5,3.2,8.5c1.4,2,3.1,3.3,5.1,3.8c2.1,0.5,4.4,0.3,7-0.5
		c2.7-0.8,5.7-2.2,9-4c7-4,12-8.7,15.1-14.2c3-5.5,3.8-12,2.3-19.5c-0.8-4.3-2.2-7.3-4-9.2c-1.8-2-3.8-3.2-6.1-3.8
		c-2.3-0.5-4.6-0.7-7-0.4c-2.4,0.2-4.7,0.4-6.8,0.5c-2.1,0.1-4-0.1-5.6-0.7c-1.5-0.7-2.5-2.1-3-4.4c-0.3-1.6-0.2-3.2,0.4-4.9
		c0.5-1.8,1.7-3.1,3.4-4.1c1.5-0.9,2.8-0.8,3.9,0.3c1,1,1.8,2.6,2.2,4.7L118.4,242.3L118.4,242.3z"/>
	<path class="st4" d="M159.7,212.2l1.6,32.2l8.9-5.1l-10.3-27.3L159.7,212.2L159.7,212.2z M166.9,192.1l28.8,61.6l-16.9,9.6
		l-4.1-11.4l-12.6,7.2l0.8,13.2l-16.7,9.5l0.6-78.4L166.9,192.1L166.9,192.1z"/>
	<polygon class="st1" points="184.8,181.9 198.8,252 234.3,231.8 231.3,216.9 211.7,228.1 200.7,172.9 184.8,181.9 	"/>
	<polygon class="st1" points="224.2,159.5 238.2,229.6 254.1,220.5 240.1,150.4 224.2,159.5 	"/>
	<path class="st4" d="M270.2,149.2l1.6,32.2l8.9-5.1l-10.3-27.3L270.2,149.2L270.2,149.2z M277.4,129.2l28.8,61.6l-16.9,9.6
		l-4.1-11.4l-12.6,7.2l0.8,13.2l-16.7,9.5l0.6-78.4L277.4,129.2L277.4,129.2z"/>
</g>
</svg>
